<?xml version="1.0" encoding="utf-8"?>
<svg width="148px" height="148px" viewBox="0 0 148 148" version="1.1" xmlns:xlink="http://www.w3.org/1999/xlink" xmlns="http://www.w3.org/2000/svg">
  <defs>
    <path d="M148 0L148 0L148 148L0 148L0 0L148 0Z" id="path_1" />
    <clipPath id="clip_1">
      <use xlink:href="#path_1" clip-rule="evenodd" fill-rule="evenodd" />
    </clipPath>
  </defs>
  <g id="diamond">
    <path d="M148 0L148 0L148 148L0 148L0 0L148 0Z" id="diamond" fill="none" stroke="none" />
    <path d="M147.276 42.9502L112.811 9.8935C112.382 9.48697 111.813 8.7805 111.222 8.7805L36.7774 8.7805C36.1871 8.7805 35.618 9.48697 35.1888 9.8935L0.723719 42.71C-0.141156 43.5274 -0.243831 44.9892 0.486688 45.9285C0.972313 46.5538 71.7667 137.794 72.2937 138.385C72.5303 138.651 72.8494 138.897 73.0865 139C73.7256 139.279 74.2605 139.3 74.9136 139.015C75.1506 138.913 75.4695 138.703 75.7063 138.438C75.7412 138.398 75.7935 138.385 75.8259 138.344L147.513 46.0469C148.244 45.1073 148.141 43.7677 147.276 42.9502L147.276 42.9502ZM36.1383 14.8797L47.6881 41.1555L8.33925 41.1555L36.1383 14.8797L36.1383 14.8797ZM55.6839 41.1555L73.9999 15.1128L92.316 41.1555L55.6839 41.1555L55.6839 41.1555ZM94.1631 45.7805L73.9999 126.434L53.837 45.7805L94.1631 45.7805L94.1631 45.7805ZM78.4533 13.4055L107.457 13.4055L96.3019 38.7843L78.4533 13.4055L78.4533 13.4055ZM51.6982 38.7843L40.5427 13.4055L69.5468 13.4055L51.6982 38.7843L51.6982 38.7843ZM49.0693 45.7805L69.0947 125.882L6.88077 45.7805L49.0693 45.7805L49.0693 45.7805ZM98.9307 45.7805L141.119 45.7805L78.9054 125.882L98.9307 45.7805L98.9307 45.7805ZM100.312 41.1555L111.862 14.8797L139.661 41.1555L100.312 41.1555L100.312 41.1555Z" id="Diamond" fill="#3377FF" fill-rule="evenodd" stroke="none" clip-path="url(#clip_1)" />
  </g>
</svg>